<svg width="15" height="17" viewBox="0 0 15 17" fill="none" xmlns="http://www.w3.org/2000/svg">
<path d="M12.856 9.896C11.8747 10.3227 10.8827 10.664 9.88 10.92C8.89867 11.1547 7.91733 11.272 6.936 11.272C4.952 11.272 3.384 10.824 2.232 9.928C1.08 9.01067 0.504 7.60267 0.504 5.704V0.199999H2.744V5.576C2.744 6.856 3.16 7.816 3.992 8.456C4.824 9.096 5.944 9.416 7.352 9.416C8.20533 9.416 9.10133 9.30933 10.04 9.096C10.9787 8.86133 11.928 8.53067 12.888 8.104L12.856 9.896ZM12.664 17V0.199999H14.936V17H12.664Z" fill="#FF9100" fill-opacity="0.3"/>
</svg>
