<svg width="22" height="23" viewBox="0 0 22 23" fill="none" xmlns="http://www.w3.org/2000/svg">
<path d="M4.32 23V0.599998H12.704C15.5413 0.599998 17.7707 1.24 19.392 2.52C21.0347 3.8 21.856 5.63467 21.856 8.024C21.856 10.4347 21.0347 12.28 19.392 13.56C17.7707 14.84 15.5413 15.48 12.704 15.48H5.632L6.688 14.36V23H4.32ZM6.688 14.552L5.632 13.464H12.736C14.912 13.464 16.576 12.9947 17.728 12.056C18.9013 11.1173 19.488 9.784 19.488 8.056C19.488 6.328 18.9013 4.99467 17.728 4.056C16.576 3.11733 14.912 2.648 12.736 2.648H5.632L6.688 1.528V14.552ZM0.96 18.84V17.432H13.888V18.84H0.96Z" fill="#CED2E3"/>
</svg>
